<?xml version="1.0" standalone="no"?>
<!DOCTYPE svg PUBLIC "-//W3C//DTD SVG 20010904//EN"
 "http://www.w3.org/TR/2001/REC-SVG-20010904/DTD/svg10.dtd">
<svg version="1.0" xmlns="http://www.w3.org/2000/svg"
 width="230.000000pt" height="230.000000pt" viewBox="0 0 230.000000 230.000000"
 preserveAspectRatio="xMidYMid meet">

<g transform="translate(0.000000,230.000000) scale(0.100000,-0.100000)"
fill="#000000" stroke="none">
<path d="M1610 1139 c-228 -594 -417 -1085 -418 -1090 -3 -6 35 -9 98 -7 l101
3 400 1035 c219 569 408 1059 419 1088 l20 52 -103 0 -102 0 -415 -1081z"/>
<path d="M969 1636 c-109 -29 -216 -123 -271 -237 l-33 -69 -7 47 c-3 27 -7
92 -7 146 l-1 97 -117 0 -116 0 6 -112 c4 -62 7 -389 7 -725 l0 -613 129 0
130 0 3 448 c3 438 4 448 26 511 28 78 83 163 126 195 73 55 117 70 211 73
l90 2 3 117 c2 87 -1 120 -10 126 -19 12 -116 9 -169 -6z"/>
</g>
</svg>
