<?xml version="1.0" encoding="UTF-8"?>
<svg version="1.1" xmlns="http://www.w3.org/2000/svg" width="256" height="256" fill="context-fill">
<path d="M0 0 C6.86904183 0.99711898 13.38700028 2.94360165 20 5 C20.84933105 5.26111572 21.69866211 5.52223145 22.57373047 5.79125977 C23.37439941 6.04576904 24.17506836 6.30027832 25 6.5625 C25.721875 6.79066406 26.44375 7.01882812 27.1875 7.25390625 C29 8 29 8 31 10 C31.26171303 12.37005806 31.26171303 12.37005806 31.2784729 15.40359497 C31.28963638 16.55066925 31.30079987 17.69774353 31.31230164 18.87957764 C31.31446182 20.14408752 31.31662201 21.40859741 31.31884766 22.71142578 C31.32814218 24.05161141 31.33831014 25.39179122 31.34928894 26.73196411 C31.37665686 30.37634519 31.39175834 34.02068747 31.40471697 37.66514444 C31.42031792 41.47154106 31.44711774 45.27785808 31.4727478 49.084198 C31.51958953 56.29479248 31.55630745 63.50540184 31.58942068 70.71607101 C31.62760405 78.92399094 31.67702406 87.13183105 31.72740483 95.33968377 C31.83080486 112.22639816 31.92003892 129.1131587 32 146 C32.83514633 146.02145584 33.67029266 146.04291168 34.53074646 146.0650177 C37.70230249 146.14966093 40.87362409 146.24024955 44.04490662 146.33454895 C46.06314011 146.39285693 48.08155901 146.44463303 50.09997559 146.49621582 C73.92771467 147.21893554 99.97294812 150.26282062 120.85424805 162.63574219 C123.98064193 164.41012459 125.53969808 165.08975888 129.125 164.390625 C131.82426872 163.08500046 134.44780225 161.71707023 137.0625 160.25 C158.82612188 149.31484685 184.38327609 146.98413924 208.3828125 146.39453125 C209.81194685 146.35463177 211.24106501 146.31414772 212.67016602 146.27307129 C216.11328466 146.17534481 219.55655092 146.08540177 223 146 C222.99631283 145.30185779 222.99262566 144.60371557 222.98882675 143.88441753 C222.90054917 126.90926597 222.83432629 109.93417258 222.79275131 92.95884228 C222.77211235 84.74974012 222.74396648 76.54079103 222.69824219 68.33178711 C222.658415 61.17810619 222.63257689 54.02453609 222.62364602 46.87074739 C222.61842421 43.08163728 222.60612396 39.2928443 222.57707977 35.50383568 C222.54997536 31.93907851 222.54154469 28.37476978 222.54756927 24.80991936 C222.54594019 22.87455408 222.52439132 20.9392379 222.50231934 19.0039978 C222.50781799 17.85554886 222.51331665 16.70709991 222.51898193 15.52384949 C222.51529476 14.5237041 222.51160759 13.52355871 222.50780869 12.49310589 C223 10 223 10 224.86795425 8.21719837 C229.24558627 5.71798062 234.18093524 4.63093483 239 3.25 C240.093125 2.92128906 241.18625 2.59257813 242.3125 2.25390625 C243.364375 1.94839844 244.41625 1.64289062 245.5 1.328125 C246.4590625 1.0487207 247.418125 0.76931641 248.40625 0.48144531 C251 0 251 0 255 1 C255 56.11 255 111.22 255 168 C250.22248389 168.79625268 247.23053452 169.01330169 242.578125 168.578125 C204.96175094 165.52068505 170.29607592 169.3459422 136.2421875 185.95605469 C130.82040755 188.48039387 126.00839262 188.98368263 120.3359375 187.12890625 C115.9920482 185.34334529 111.76501695 183.38163914 107.5625 181.28515625 C76.61675722 165.90957191 39.73348448 166.11036197 5.94726562 168.73144531 C1.18678977 169.09339489 1.18678977 169.09339489 -1 168 C-1.02332684 146.24317719 -1.04097812 124.48635643 -1.05181217 102.72952366 C-1.05697559 92.62819057 -1.06401915 82.52686523 -1.07543945 72.42553711 C-1.0853849 63.62455536 -1.09185309 54.82357922 -1.09408849 46.02259201 C-1.09539584 41.35953733 -1.09848318 36.69649872 -1.10573006 32.03344917 C-1.11248809 27.64967634 -1.11461741 23.26592629 -1.11310768 18.88214874 C-1.11338411 17.26839766 -1.11539052 15.65464587 -1.11920547 14.04089928 C-1.12413934 11.8473111 -1.12299944 9.6538103 -1.12025452 7.46022034 C-1.12117631 6.2296267 -1.1220981 4.99903307 -1.12304783 3.73114872 C-1 1 -1 1 0 0 Z " transform="translate(1,46)"/>
<path d="M0 0 C5.58297178 0.43912022 10.22990924 2.05190235 15.37890625 4.17578125 C16.17653885 4.49732681 16.97417145 4.81887238 17.79597473 5.15016174 C20.38786789 6.19691344 22.97518293 7.25449396 25.5625 8.3125 C27.35143011 9.03800033 29.14065807 9.76276666 30.93017578 10.48681641 C33.6466752 11.5863038 36.36283117 12.68658636 39.07769775 13.7901001 C44.78631018 16.11005146 50.50593535 18.39952458 56.23828125 20.66015625 C57.63534885 21.21244942 59.03240331 21.76477582 60.42944336 22.31713867 C62.38887469 23.09162066 64.34878335 23.86473035 66.31057739 24.63320923 C68.09170634 25.33152123 69.87015201 26.03666593 71.6484375 26.7421875 C72.64020996 27.1326123 73.63198242 27.52303711 74.65380859 27.92529297 C77 29 77 29 79 31 C79.24888897 33.46096897 79.24888897 33.46096897 79.24723816 36.62464905 C79.25143265 37.82076309 79.25562714 39.01687714 79.25994873 40.24923706 C79.25432922 41.56828033 79.24870972 42.88732361 79.24291992 44.24633789 C79.24399239 45.64400827 79.24593055 47.04167821 79.24867249 48.43934631 C79.25352914 52.24087039 79.24585532 56.0422775 79.23571944 59.84378743 C79.22695373 63.81516343 79.22869609 67.78653561 79.2290802 71.75791931 C79.22814298 78.42693039 79.21945066 85.09589603 79.20581055 91.76489258 C79.19007798 99.4856881 79.18481263 107.20643385 79.1855461 114.92724425 C79.18615552 122.34255483 79.18105839 129.75784913 79.17275429 137.17315483 C79.16921515 140.33463099 79.16739014 143.49610138 79.16686058 146.65757942 C79.16585925 150.37656298 79.15977994 154.09550443 79.14969444 157.81447411 C79.1467629 159.18311429 79.14554539 160.55175932 79.14612198 161.92040253 C79.14660939 163.78105108 79.14036292 165.64169786 79.13371277 167.50233459 C79.13203692 168.54597199 79.13036108 169.58960939 79.12863445 170.66487217 C79 173 79 173 78 174 C73.66583973 173.59008573 69.69759143 172.68456148 65.56347656 171.3371582 C47.61658047 165.5103292 29.02642873 163.61743001 10.26855469 162.68286133 C9.08938477 162.61993896 7.91021484 162.5570166 6.6953125 162.4921875 C5.1177417 162.42040283 5.1177417 162.42040283 3.50830078 162.34716797 C1 162 1 162 -1 160 C-1.24888897 157.27353573 -1.24888897 157.27353573 -1.24723816 153.72996521 C-1.24965257 153.0796771 -1.25206699 152.42938899 -1.25455457 151.75939518 C-1.26021072 149.57053444 -1.25151428 147.38196307 -1.24291992 145.19311523 C-1.24399232 143.6279594 -1.24593037 142.06280395 -1.24867249 140.49765015 C-1.25353032 136.23953376 -1.24585379 131.98152176 -1.23571944 127.723418 C-1.22695555 123.27557917 -1.22869605 118.82774377 -1.2290802 114.37989807 C-1.22814289 106.91055548 -1.21944941 99.44125345 -1.20581055 91.97192383 C-1.19007858 83.32409279 -1.1848126 74.67630619 -1.1855461 66.02846187 C-1.18615549 57.72361471 -1.1810586 49.41878209 -1.17275429 41.11393929 C-1.16921478 37.57287546 -1.16739009 34.03181678 -1.16686058 30.49075127 C-1.16585936 26.32526765 -1.15978097 22.15982165 -1.14969444 17.99435043 C-1.1467625 16.46122912 -1.14554547 14.92810348 -1.14612198 13.39497948 C-1.14660928 11.31096279 -1.14099074 9.22705301 -1.13371277 7.14305115 C-1.13203692 5.9740499 -1.13036108 4.80504866 -1.12863445 3.60062313 C-1 1 -1 1 0 0 Z " transform="translate(42,22)"/>
<path d="M0 0 C0.04666797 20.69647316 0.08196327 41.39293769 0.10362434 62.08945274 C0.11394814 71.69865042 0.12802947 81.30781546 0.15087891 90.91699219 C0.1707791 99.28985605 0.18370841 107.66269628 0.18817699 116.03558314 C0.1907901 120.47121456 0.1969548 124.90677835 0.21146011 129.34238815 C0.22499085 133.51360245 0.22923183 137.68472097 0.22621536 141.85595512 C0.22676756 143.39027488 0.23077179 144.9245977 0.23841095 146.45889854 C0.24830188 148.5471304 0.24599063 150.63499648 0.24050903 152.72323608 C0.24235262 153.89391317 0.24419621 155.06459026 0.24609566 156.27074242 C0 159 0 159 -2 161 C-4.58764648 161.36303711 -4.58764648 161.36303711 -7.87109375 161.52734375 C-9.67791626 161.62934082 -9.67791626 161.62934082 -11.52124023 161.73339844 C-12.81360596 161.80075195 -14.10597168 161.86810547 -15.4375 161.9375 C-32.40378802 162.95596004 -48.18666051 165.19566804 -64.53100586 169.93066406 C-69.35359575 171.32701717 -73.98877083 172.55783272 -79 173 C-80.73959367 171.26040633 -80.13746337 168.87684179 -80.14717102 166.50906372 C-80.15432632 165.31721466 -80.16148163 164.1253656 -80.16885376 162.8973999 C-80.17154266 161.57790344 -80.17423157 160.25840698 -80.17700195 158.89892578 C-80.18326375 157.50464711 -80.18991029 156.11037011 -80.19691467 154.71609497 C-80.21434994 150.91855903 -80.22488309 147.12103571 -80.2331202 143.32346964 C-80.23826455 140.95300863 -80.2443405 138.58255158 -80.25063133 136.21209335 C-80.26968965 128.80159645 -80.28391994 121.39110956 -80.2922433 113.98059285 C-80.30202195 105.41487963 -80.32835493 96.84942441 -80.36874419 88.28380215 C-80.39886145 81.67062408 -80.41370795 75.05752013 -80.41702431 68.44427478 C-80.4193797 64.49088227 -80.42840284 60.53776516 -80.45348549 56.58444595 C-80.47669513 52.86617399 -80.48102857 49.14836014 -80.47072411 45.43003464 C-80.46998939 43.41120243 -80.48913026 41.39239385 -80.50878906 39.37365723 C-80.50184525 38.17616852 -80.49490143 36.97867981 -80.48774719 35.74490356 C-80.49013555 34.70181093 -80.4925239 33.6587183 -80.49498463 32.5840168 C-80 30 -80 30 -78.08424473 28.19640827 C-76.1602475 27.09198605 -74.32763811 26.17523247 -72.25830078 25.38110352 C-71.5335556 25.09933258 -70.80881042 24.81756165 -70.06210327 24.5272522 C-69.28106232 24.23079803 -68.50002136 23.93434387 -67.6953125 23.62890625 C-66.87132965 23.31005463 -66.0473468 22.991203 -65.19839478 22.66268921 C-62.5095021 21.62337648 -59.81739457 20.59270321 -57.125 19.5625 C-53.40256724 18.13039443 -49.68157725 16.69456909 -45.9609375 15.2578125 C-45.03140259 14.89946823 -44.10186768 14.54112396 -43.14416504 14.17192078 C-37.33242276 11.92464882 -31.55009113 9.6162689 -25.7890625 7.2421875 C-25.0935025 6.95699753 -24.3979425 6.67180756 -23.68130493 6.37797546 C-19.76496812 4.77196141 -19.76496812 4.77196141 -15.85943604 3.1399231 C-14.11405558 2.40379701 -12.36186231 1.68388672 -10.609375 0.96484375 C-9.63967773 0.5587085 -8.66998047 0.15257324 -7.67089844 -0.26586914 C-4.6621588 -1.09286001 -2.99184538 -0.70002138 0 0 Z " transform="translate(215,23)"/>
</svg>