<svg version="1.1" xmlns="http://www.w3.org/2000/svg" viewBox="0 0 256 256" height="100%" width="100%">
	<path fill="#000000" d="M103,21.5C77.5,25.2,57.3,35.6,39.6,54c-15.2,15.8-24.4,33.9-28.4,56c-1.6,8.5-1.6,27.4,0,36c4.2,23,14.6,42.7,30.9,58.6C55,216.9,68.2,225,84.7,230.2c36.5,11.6,78.1,2.2,105.2-23.9l5.7-5.5l-10.7-9.9l-10.8-9.9l-4.4,4.2c-20,19-50.4,25.7-76.9,16.8c-11.7-3.9-20.7-9.3-29.7-17.9c-11.8-11.3-19.1-24.6-22.7-41c-1.5-7-1.5-23.2,0-30.2c5.1-24,19.9-43.5,41-54.3c10.5-5.4,19.8-7.9,31.7-8.5c13.6-0.7,25.6,1.8,37.7,7.7c16.3,8,29,20.7,36.6,36.8c2.6,5.3,5.8,15.2,5.8,17.5c0,0.9-2,1.6-10.5,3.9c-5.9,1.5-10.9,2.8-11.3,2.8c-0.4,0-0.7,0.2-0.7,0.5c0,0.2,12.5,12.9,27.7,28.2c18.1,18.1,27.8,27.4,28,26.8c1.5-4.4,19.9-74.6,19.6-74.9c-0.2-0.2-5.6,1.1-12.1,2.8c-6.5,1.7-11.8,3-11.9,2.9c-0.1-0.1-0.9-2.6-1.7-5.6c-1.7-6.6-4.4-13.4-7.9-20.4c-5.1-10.1-10.1-17-18.6-25.8c-16.4-16.8-35.2-26.8-58.6-31.2C128.2,20.8,110.4,20.5,103,21.5z"/>
</svg>